<?xml version="1.0" ?><svg fill="none" height="24" viewBox="0 0 24 24" width="24" xmlns="http://www.w3.org/2000/svg"><path clip-rule="evenodd" d="M2.5 4.54926C2.5 3.0243 4.13822 2.06036 5.47129 2.80095L18.8826 10.2517C20.2542 11.0137 20.2542 12.9863 18.8826 13.7483L5.47129 21.199C4.13823 21.9396 2.5 20.9757 2.5 19.4507V4.54926ZM4.98564 3.67511C4.31911 3.30481 3.5 3.78678 3.5 4.54926V19.4507C3.5 20.2132 4.31911 20.6952 4.98564 20.3249L18.397 12.8741C19.0828 12.4931 19.0828 11.5068 18.397 11.1258L4.98564 3.67511Z" fill="black" fill-rule="evenodd"/><path clip-rule="evenodd" d="M3.1543 20.139L15.1543 8.63901L15.8462 9.361L3.8462 20.861L3.1543 20.139Z" fill="black" fill-rule="evenodd"/><path clip-rule="evenodd" d="M3.1543 3.86099L15.1543 15.361L15.8462 14.639L3.8462 3.139L3.1543 3.86099Z" fill="black" fill-rule="evenodd"/></svg>