<svg width="93" height="150" viewBox="0 0 93 150" fill="none" xmlns="http://www.w3.org/2000/svg">
<path d="M61.413 149.775C60.5163 149.805 59.9423 149.865 59.3684 149.865C47.1011 149.865 34.8696 149.835 22.6023 149.894C20.8805 149.894 20.4142 149.508 20.4142 148.08C20.4501 124.401 20.4501 100.693 20.4501 77.0146C20.4501 76.3899 20.4501 75.7653 20.4501 74.9621C13.7784 74.9621 7.28601 74.9621 0.686035 74.9621C0.686035 66.514 0.686035 58.2146 0.686035 49.6773C1.36755 49.6773 2.0132 49.6773 2.62298 49.6773C8.0034 49.6773 13.3838 49.6475 18.7642 49.707C20.1273 49.707 20.486 49.3798 20.486 48.2792C20.4142 41.6456 20.4142 34.9824 20.486 28.3488C20.5218 23.7083 21.4186 19.1868 24.0012 14.9925C27.6957 9.07286 33.5424 5.23552 40.9315 2.85577C46.9576 0.892479 53.3065 0.178555 59.6913 0.0893149C70.0934 -0.0296724 80.4955 0.0298212 90.8977 7.43674e-05C91.8661 7.43674e-05 92.6553 -0.0296725 92.6553 1.10071C92.6194 9.28109 92.6194 17.4615 92.6194 25.6418C92.6194 25.7311 92.5835 25.8203 92.4401 26.207C91.8303 26.207 91.1488 26.207 90.4672 26.207C84.0107 26.207 77.5542 26.1773 71.0977 26.207C67.3673 26.207 64.3543 27.4564 62.4532 30.1634C61.8793 30.9665 61.5206 32.0077 61.5206 32.9596C61.413 38.0165 61.5206 43.0735 61.4489 48.1305C61.4489 49.3203 61.8793 49.6475 63.2782 49.6475C72.2456 49.588 81.2129 49.6178 90.1803 49.6178C90.8977 49.6178 91.5792 49.6178 92.7987 49.6178C91.5433 58.1254 90.3238 66.4545 89.0683 74.8729C79.7423 74.8729 70.6673 74.8729 61.413 74.8729C61.413 99.8899 61.413 124.758 61.413 149.775Z" fill="#084424"/>
</svg>
