<svg width="184" height="134" viewBox="0 0 184 134" fill="none" xmlns="http://www.w3.org/2000/svg">
<path d="M93.2344 133.996C72.6212 133.321 53.0187 132.796 33.4162 132.008C29.1925 131.82 24.8966 131.145 20.7812 130.132C13.0557 128.255 7.71285 123.415 4.96922 115.498C2.76711 109.119 1.9729 102.552 1.3953 95.8731C0.131787 80.1886 0.131786 64.504 0.745491 48.8194C1.10649 39.9639 1.3231 31.0335 3.59741 22.4407C4.96922 17.3001 6.62984 12.272 10.637 8.55723C14.8607 4.61732 19.8064 2.25338 25.4381 1.99072C40.889 1.20274 56.3038 0.22714 71.7548 0.0770478C92.5485 -0.14809 113.378 0.152095 134.172 0.564847C143.161 0.752462 152.222 1.24026 161.139 2.441C169.298 3.56668 175.399 8.29457 178.648 16.5496C181.139 22.891 182.077 29.5326 182.619 36.2867C184.027 53.2096 184.063 70.1324 183.269 87.0553C182.871 95.648 182.474 104.278 180.128 112.646C177.456 122.252 171.789 128.593 162.33 130.769C158.648 131.595 154.822 131.895 151.067 132.045C131.429 132.758 111.826 133.396 93.2344 133.996ZM73.271 91.3329C89.7327 82.4774 106.014 73.6971 122.62 64.7291C106.05 55.7236 89.7688 46.9057 73.271 37.9377C73.271 55.8362 73.271 73.4344 73.271 91.3329Z" fill="#084424"/>
</svg>
