<svg width="163" height="150" viewBox="0 0 163 150" fill="none" xmlns="http://www.w3.org/2000/svg">
<path d="M161.938 74.9222C161.938 85.4299 161.71 95.9678 162.004 106.476C162.492 125.075 149.888 139.448 133.832 145.849C127.383 148.416 120.609 149.775 113.606 149.775C91.6876 149.805 69.7362 150.077 47.8174 149.684C31.305 149.382 17.7238 142.981 7.98574 130.36C2.87244 123.717 0.429779 116.168 0.429779 107.985C0.429779 86.3357 0.429779 64.7164 0.429779 43.0668C0.429779 25.4029 9.71189 13.0533 26.1917 5.02155C33.3568 1.54917 41.1408 0.0696326 49.2504 0.0394379C70.5178 0.0394379 91.8178 -0.0813407 113.085 0.0998272C129.598 0.220606 143.374 6.07837 153.536 18.3978C159.203 25.2822 161.938 33.1932 161.938 41.8892C161.938 52.8801 161.938 63.9011 161.938 74.9222ZM12.4477 74.9222C12.4477 86.0036 12.4477 97.0548 12.4477 108.136C12.4477 113.088 13.6853 117.738 16.4536 121.935C23.7165 132.956 34.6922 138.331 48.3059 138.542C70.1596 138.844 92.0458 138.663 113.932 138.603C119.306 138.603 124.517 137.576 129.37 135.432C142.593 129.574 149.986 120.244 149.921 106.234C149.79 84.7958 149.888 63.3576 149.888 41.9194C149.888 35.8503 148.032 30.2945 144.156 25.4029C136.665 16.0124 126.308 11.3926 113.932 11.2718C92.111 11.0303 70.2899 11.1813 48.4688 11.2115C43.8114 11.2115 39.3169 12.0871 34.9527 13.5968C22.9674 17.7335 11.8289 28.211 12.35 43.6405C12.7408 54.0879 12.4477 64.505 12.4477 74.9222Z" fill="#084424"/>
<path d="M81.3632 106.928C60.3563 106.928 43.4206 91.4084 43.388 72.0839C43.3554 53.0612 60.4215 37.4808 81.2981 37.4808C102.24 37.4506 119.241 53.0008 119.273 72.1744C119.273 91.3178 102.305 106.898 81.3632 106.928ZM81.3632 95.7565C95.6609 95.7565 107.255 85.1581 107.223 72.114C107.19 59.1907 95.5958 48.6226 81.3632 48.6226C67.0655 48.6226 55.4059 59.1605 55.4059 72.1744C55.4384 85.2185 67.0655 95.7867 81.3632 95.7565Z" fill="#084424"/>
<path d="M123.67 26.9127C128.067 26.9127 131.649 30.3851 131.649 34.6425C131.617 38.9 128.002 42.3422 123.605 42.312C119.273 42.2818 115.723 38.8396 115.723 34.6727C115.691 30.4153 119.273 26.9127 123.67 26.9127Z" fill="#084424"/>
</svg>
