<svg width="182" height="166" viewBox="0 0 182 166" fill="none" xmlns="http://www.w3.org/2000/svg">
<path d="M181.855 83.1675C181.855 83.9983 181.819 84.8291 181.855 85.6599C182.293 100.016 177.657 113.21 169.625 125.307C154.84 147.573 133.191 161.431 104.862 165.02C68.7195 169.606 39.2948 158.041 17.208 131.554C7.64314 120.122 2.16707 106.995 0.560761 92.7717C-2.46933 65.3879 6.76697 41.8923 28.5982 22.7835C43.7852 9.49037 62.1117 1.88007 83.0668 0.48429C116.58 -1.74231 143.815 9.49037 164.368 33.7171C173.86 44.9165 179.482 57.7444 181.417 71.8018C181.928 75.5571 181.49 79.3789 181.49 83.2007C181.6 83.1675 181.746 83.1675 181.855 83.1675ZM72.6258 44.0192C69.1576 44.2519 63.6451 44.4845 58.1325 45.0162C49.9549 45.7473 41.8868 47.0434 34.0378 49.3032C29.4744 50.6326 27.1014 54.8864 28.4887 58.974C29.876 63.0284 34.5124 65.3214 39.0758 64.0918C50.0644 61.1341 61.3086 59.9045 72.6988 59.5722C83.724 59.2398 94.6761 59.8713 105.555 61.5329C119.282 63.6266 132.57 67.0828 144.727 73.4967C149.181 75.8562 154.292 74.7596 156.775 70.9046C159.257 67.0828 157.833 62.3637 153.234 60.1039C148.962 58.0102 144.618 55.9498 140.164 54.2882C119.209 46.4785 97.1951 43.9195 72.6258 44.0192ZM73.2464 72.4997C69.9243 72.7324 63.9371 72.8985 58.0595 73.6961C51.8898 74.5269 45.7931 75.823 39.6964 77.2188C35.133 78.249 33.0156 82.5693 34.914 86.2249C36.5568 89.3155 39.9154 90.5784 43.9677 89.5149C58.7531 85.5935 73.867 84.7294 89.0905 86.2249C105.154 87.7868 120.414 91.7415 134.396 99.3851C137.864 101.279 142.099 100.216 144.107 97.1917C146.151 94.101 145.056 90.1796 141.515 88.2521C139.069 86.9228 136.586 85.6267 134.031 84.4968C115.741 76.2218 96.2094 72.7656 73.2464 72.4997ZM133.739 117.098C133.775 115.004 132.717 113.409 130.745 112.512C125.014 109.953 119.391 107.162 113.441 105.134C100.882 100.814 87.7763 99.4847 74.3781 99.7174C63.8641 99.9168 53.5326 101.246 43.3106 103.273C39.6234 104.004 37.506 106.563 38.1996 109.388C39.0027 112.645 41.7773 114.14 45.6836 113.343C58.5706 110.784 71.5671 109.388 84.7827 110.219C94.1285 110.817 103.255 112.346 111.907 115.603C116.398 117.298 120.669 119.391 124.977 121.418C129.212 123.446 133.739 121.252 133.739 117.098Z" fill="#084424"/>
</svg>
