<svg width="154" height="135" viewBox="0 0 154 135" fill="none" xmlns="http://www.w3.org/2000/svg">
<path d="M0.266724 13.111C1.01938 13.111 0.778533 12.5804 0.838745 12.2356C1.74194 6.74442 4.96332 2.73879 10.9846 1.01451C15.8317 -0.364912 20.8896 -0.205748 25.4056 2.0756C28.2356 3.53461 30.4032 5.78943 31.5473 8.57481C32.3903 10.6439 33.0225 12.7927 32.7515 14.9944C32.1193 20.5386 29.2893 25.1544 22.3648 27.3031C17.1263 28.8948 12.0383 28.3112 7.25141 25.7911C6.95035 24.8361 6.19769 24.3586 5.11386 24.1994C5.08375 23.828 5.02354 23.4566 4.45151 23.4566C2.28385 21.3345 1.26024 18.7613 0.838745 15.9759C0.778533 15.6576 0.929065 15.2066 0.266724 15.2332C0.266724 14.5169 0.266724 13.8272 0.266724 13.111Z" fill="#084424"/>
<path d="M83.1196 56.3771C84.4142 55.6874 84.926 54.6794 85.5883 53.857C88.8699 49.8779 92.9343 46.8007 97.9922 44.599C104.917 41.6014 112.263 41.283 119.669 41.8932C125.359 42.3441 130.748 44.0419 135.655 46.8007C141.496 50.0901 145.681 54.6528 148.541 60.1175C150.287 63.4334 151.431 66.9615 152.123 70.6223C152.756 74.0443 153.237 77.4133 153.237 80.8884C153.207 98.1312 153.207 115.374 153.268 132.617C153.268 133.837 152.876 134.155 151.521 134.129C142.279 134.076 133.066 134.076 123.823 134.129C122.469 134.129 122.168 133.784 122.168 132.643C122.198 116.382 122.288 100.094 122.137 83.8329C122.107 80.1456 121.535 76.4848 119.368 73.1159C117.441 70.1448 114.761 68.0226 111.239 66.8024C106.512 65.1577 101.635 64.8393 96.6976 66.0596C91.6999 67.2798 88.2377 70.1713 85.769 74.0974C84.3841 76.2991 83.9024 78.607 83.511 81.0741C83.1196 83.7268 83.1798 86.3265 83.1798 88.9527C83.1196 103.463 83.1196 117.947 83.1798 132.458C83.1798 133.784 82.8185 134.155 81.2831 134.129C72.1609 134.049 63.0085 134.076 53.8863 134.129C52.6218 134.129 52.1702 133.784 52.2003 132.749C52.2304 132.007 52.2906 131.264 52.2906 130.521C52.2906 102.535 52.3207 74.5483 52.2605 46.562C52.2605 45.3948 52.5315 44.9703 53.9766 44.9703C63.159 45.0234 72.3415 45.0234 81.524 44.9703C82.7583 44.9703 83.1798 45.2356 83.1497 46.3763C83.0594 49.6126 83.1196 52.8755 83.1196 56.3771Z" fill="#084424"/>
<path d="M32.7817 45.7661C32.7817 46.6946 32.8118 47.623 32.8118 48.5515C32.8118 76.4848 32.8118 104.418 32.8118 132.378C32.8118 134.076 32.8118 134.076 30.8549 134.076C21.281 134.076 11.6771 134.076 2.10326 134.076C2.07315 133.412 2.04305 132.749 2.04305 132.086C2.04305 111.183 2.04305 90.3056 2.04305 69.402C2.04305 61.9478 2.07315 54.4671 2.01294 47.0129C2.01294 46.0579 2.2839 45.7131 3.42794 45.7131C13.2125 45.7661 22.9971 45.7396 32.7817 45.7661Z" fill="#084424"/>
<path d="M32.7816 45.7662C22.9971 45.7662 13.2426 45.7662 3.45799 45.7131C2.31395 45.7131 2.04299 46.0314 2.04299 47.0129C2.0731 54.4671 2.04299 61.9213 2.04299 69.402C2.04299 90.3056 2.04299 111.183 2.04299 132.086C2.04299 132.749 2.0731 133.413 2.1032 134.076C1.5914 134.102 1.20001 133.996 1.20001 133.466C1.20001 133.121 1.20001 132.749 1.20001 132.404C1.20001 104.073 1.20001 75.7686 1.20001 47.4374C1.20001 45.4213 1.41076 45.2356 3.66874 45.2356C12.8512 45.2356 22.0336 45.2356 31.186 45.2621C31.7279 45.2356 32.5408 44.8642 32.7816 45.7662Z" fill="#E0E0E0"/>
<path d="M5.11383 24.226C6.19766 24.3851 6.95032 24.8626 7.25139 25.8176C6.31809 25.4993 5.62564 24.9687 5.11383 24.226Z" fill="#E0E0E0"/>
<path d="M4.45154 23.4832C5.02356 23.4832 5.05367 23.8545 5.11388 24.2259C4.48164 24.2524 4.48164 23.8811 4.45154 23.4832Z" fill="#E0E0E0"/>
</svg>
