<svg width="146" height="150" viewBox="0 0 146 150" fill="none" xmlns="http://www.w3.org/2000/svg">
<path d="M76.6899 0.126569C85.8539 0 94.9653 0.075004 104.066 0C104.618 9.5677 108.472 19.3135 116.318 26.078C124.148 33.0111 135.224 36.1847 146 37.2582V62.4268C135.901 62.1314 125.755 60.2563 116.591 56.3749C112.6 54.7623 108.882 52.6856 105.243 50.5621C105.195 68.8255 105.327 87.0656 105.111 105.254C104.565 113.992 101.335 122.688 95.6428 129.888C86.4841 141.875 70.5876 149.689 54.2605 149.933C44.2458 150.444 34.2415 148.006 25.7078 143.515C11.5653 136.071 1.61359 122.444 0.164159 107.818C-0.00389081 104.692 -0.0616581 101.569 0.080134 98.5178C1.34051 86.6249 7.93122 75.2478 18.1613 67.5083C29.7567 58.4937 45.9998 54.1998 61.2083 56.7405C61.3501 65.9988 60.9352 75.2478 60.9352 84.5061C53.9874 82.4997 45.8685 83.0622 39.7977 86.8265C35.3654 89.3907 31.9991 93.319 30.2451 97.763C28.7957 100.932 29.2105 104.452 29.2946 107.818C30.9593 118.075 42.0086 126.696 53.8036 125.763C61.6232 125.688 69.1171 121.638 73.1924 115.708C74.5105 113.631 75.9862 111.508 76.065 109.065C76.7529 97.8849 76.4798 86.7515 76.5639 75.5712C76.6216 50.3746 76.4798 25.2482 76.6952 0.131257L76.6899 0.126569Z" fill="#084424"/>
</svg>
