<svg width="165" height="133" viewBox="0 0 165 133" fill="none" xmlns="http://www.w3.org/2000/svg">
<path d="M162.252 17.6273L162.252 17.6271C162.021 17.4748 161.699 17.4827 161.475 17.646C159.66 18.985 156.975 19.8985 154.48 20.541L146.317 22.6431L152.014 16.4304C155.281 12.8673 156.718 10.0562 157.346 8.1866L152.242 14.3686C150.329 16.6848 147.582 19.3896 143.625 22.4138C143.418 22.5722 143.373 22.8063 143.447 22.9922C143.534 23.2069 143.791 23.38 144.067 23.3558L144.079 23.3547L144.092 23.3537C144.767 23.3015 148.358 22.993 152.399 22.1419L160.277 20.483L154.725 26.3125C152.387 28.7665 149.207 31.871 144.884 35.7423C144.755 35.859 144.701 36.0106 144.71 36.1495L144.71 36.151C144.82 37.783 145.832 56.1636 137.207 76.4087C128.525 96.7898 110.126 118.912 71.7776 127.757L71.7486 127.764L71.7196 127.77C71.3281 127.85 40.7908 134.085 14.1464 121.237L15.1647 116.486C25.8315 116.198 40.6413 113.472 50.8636 102.301L50.8656 102.299C51.0101 102.141 51.0339 101.939 50.9544 101.769L50.9533 101.766C50.877 101.603 50.6912 101.454 50.4427 101.431C50.4397 101.432 50.4368 101.432 50.4341 101.432C50.3361 101.438 50.2359 101.44 50.1467 101.44C49.9609 101.442 49.7262 101.436 49.4519 101.423C48.9001 101.396 48.1431 101.333 47.2303 101.205C45.4073 100.95 42.9228 100.431 40.1886 99.3963C34.7049 97.3204 28.1507 93.1347 24.0491 84.8378L22.1512 80.9986L26.4275 81.2337C29.3272 81.3932 32.5692 81.1864 34.9853 80.1029L36.0083 82.3841M162.252 17.6273L14.2188 56.0152C18.0975 72.9076 34.5473 76.4876 35.3436 76.6507M162.252 17.6273C162.47 17.7709 162.534 17.9961 162.483 18.1824C162.442 18.3235 162.039 19.5154 159.817 22.3072C157.61 25.0816 153.7 29.3214 146.816 35.5533L145.976 36.3134M162.252 17.6273L145.976 36.3134M36.0083 82.3841L34.984 80.1035C35.2417 79.9878 35.3408 79.7593 35.3191 79.5707C35.2971 79.3805 35.1391 79.161 34.842 79.0998C34.8418 79.0998 34.8416 79.0997 34.8413 79.0997L35.3436 76.6507M36.0083 82.3841C33.9217 83.3198 31.4601 83.6872 29.1316 83.7651L35.3436 76.6507M36.0083 82.3841C37.2309 81.8349 37.9533 80.5857 37.8025 79.2829C37.6517 77.9817 36.6608 76.9208 35.3436 76.6507M7.16663 47.7117C6.93802 61.3238 12.8135 69.8373 19.1296 75.0417C20.0373 74.6297 21.0421 74.4616 22.0297 74.553L21.7993 77.0424L20.3918 79.1085C20.3501 79.0801 20.3083 79.0515 20.2665 79.0228C20.2659 79.0224 20.2653 79.022 20.2648 79.0216C19.8636 78.7461 19.4612 78.4589 19.0589 78.1597L52.9593 130.5C38.6065 130.5 19.0106 127.755 2.71856 115.652L2.71701 115.651C2.50052 115.49 2.4548 115.244 2.54277 115.049L2.54352 115.048C2.63698 114.84 2.90746 114.657 3.24909 114.715L3.25058 114.716C3.49669 114.758 9.66484 115.774 17.8558 115.221C26.013 114.67 36.4682 112.545 45.0289 106.058L49.2654 102.848L44.0912 101.632C36.7741 99.9119 25.5074 94.9267 20.8875 80.2051C20.8398 80.0519 20.8717 79.8716 21.0097 79.7257L21.01 79.7252C21.1268 79.6017 21.3378 79.5103 21.5689 79.5317L31.2033 80.4236L23.2068 74.9762C16.5216 70.4222 9.42336 62.2534 9.66624 47.7555M7.16663 47.7117L9.66624 47.7555M7.16663 47.7117C7.18661 46.5709 7.85877 45.538 8.91056 45.0336M7.16663 47.7117L8.91056 45.0336M9.66624 47.7555C9.6692 47.5866 9.76885 47.3955 9.98952 47.2888M9.66624 47.7555L9.98952 47.2888M9.98952 47.2888C10.2217 47.1788 10.4956 47.2092 10.6859 47.3472L10.695 47.3537C11.3077 47.7936 12.258 48.3892 13.3965 48.98L16.5764 45.2996C10.9349 37.468 5.0793 24.2896 13.99 9.24329L13.9906 9.24241C14.076 9.09793 14.2515 8.97127 14.4865 8.95133L14.4894 8.95108C14.7117 8.93194 14.9192 9.02353 15.0448 9.1696L9.98952 47.2888ZM8.91056 45.0336C9.32532 44.8356 9.77082 44.733 10.2158 44.7229C10.5792 45.3301 10.9476 45.9149 11.317 46.4764C11.3183 46.4783 11.3195 46.4802 11.3207 46.4821C11.7207 47.0899 12.1219 47.6703 12.5194 48.2221L14.5479 46.7609L15.6993 44.5418C14.7524 44.0505 14.0123 43.5797 13.6151 43.2949C13.0479 42.8849 12.4193 42.5909 11.7634 42.4156C7.00347 33.9779 3.72206 21.6753 11.839 7.96938L8.91056 45.0336ZM145.976 36.3134L145.994 37.4458M145.976 36.3134L145.994 37.4458M145.994 37.4458C146.076 42.6647 145.609 61.4109 136.106 80.8854C126.661 100.242 108.234 120.455 72.0581 128.806M145.994 37.4458L72.0581 128.806M72.0581 128.806C71.2859 128.968 63.6726 130.499 52.9597 130.5L72.0581 128.806ZM82.2566 42.7488C82.1546 42.883 81.9814 42.983 81.776 42.9945L15.045 9.16982C15.266 9.42708 22.2869 17.4805 33.5322 25.5373C44.7469 33.5723 60.4384 41.8089 77.9397 42.0018L80.8598 42.034L80.4415 39.1438C80.224 37.6413 80.1151 36.1213 80.1151 34.6009C80.1151 16.9351 94.6999 2.5 112.695 2.5C121.101 2.5 128.982 5.60054 135.052 11.2544L135.799 11.9501L136.819 11.9242C141.413 11.8075 149.101 10.6502 156.808 5.19766C157.003 5.06084 157.266 5.03564 157.487 5.13682L157.489 5.13803C157.707 5.23759 157.812 5.42213 157.822 5.58521C157.829 5.69855 157.853 6.26749 157.619 7.24161L149.405 10.448C143.646 12.696 138.546 13.05 135.46 13.009C135.278 13.0055 135.114 12.9306 135.006 12.8217L135.006 12.8214C129.068 6.86083 121.133 3.57769 112.695 3.57769C95.4403 3.57769 81.359 17.4661 81.359 34.6009C81.359 37.209 81.6909 39.8132 82.3423 42.3399L82.3428 42.3419C82.3771 42.4745 82.3528 42.6211 82.2566 42.7488Z" fill="#084424" stroke="#084424" stroke-width="5"/>
</svg>
